<svg width="1000" height="1000" viewBox="0 0 1000 1000" fill="none" xmlns="http://www.w3.org/2000/svg">
<path d="M475.24 861.45C637.86 861.45 769.69 838.451 769.69 810.08C769.69 781.709 637.86 758.71 475.24 758.71C312.62 758.71 180.79 781.709 180.79 810.08C180.79 838.451 312.62 861.45 475.24 861.45Z" fill="#E6E6E6"/>
<path d="M653.67 800.84L651.22 802.75L581.29 842.1L467.08 805.55L495.76 445.13H552.36L653.67 800.84Z" fill="#FE5C09"/>
<path d="M581.29 842.11L530.69 447.41L495.76 445.13L467.08 805.55L581.29 842.11Z" fill="#F25314"/>
<path opacity="0.5" d="M581.29 842.1C581.29 842.1 622.47 762.66 572.5 515.85L653.67 800.85L581.29 842.1Z" fill="#F9916B"/>
<path opacity="0.8" d="M569.65 505.85L636.32 760.77L653.67 800.84L569.65 505.85Z" fill="#F7DDD5"/>
<path d="M658.6 495C643.632 516.87 627.544 537.951 610.4 558.16C602.213 567.833 593.907 577.167 585.48 586.16C459.7 721.02 311.12 783.52 243.48 726.16C171.27 664.99 218.48 490.56 348.97 336.58C474.26 188.72 630.82 113.46 707 162C710.136 163.982 713.126 166.184 715.95 168.59C778.34 221.49 751.44 359.14 658.6 495Z" fill="#F28C1C"/>
<path d="M585.48 586.2C593.224 576.381 601.546 567.031 610.4 558.2C602.213 567.847 593.907 577.18 585.48 586.2Z" fill="#F28C1C"/>
<path d="M658.6 495C743.63 349.37 707 162 707 162C710.136 163.982 713.127 166.184 715.95 168.59C778.34 221.49 751.44 359.14 658.6 495Z" fill="#F7AC63"/>
<path d="M578.64 531.25C469.51 660.06 341.68 738 265.69 728.57C250.83 726.73 237.95 721.57 227.57 712.77C194.77 684.98 193.46 626.55 217.88 555.3C230.37 518.85 249.59 479.03 274.8 438.3C277.13 434.5 279.52 430.71 281.98 426.89C289.14 415.743 296.743 404.547 304.79 393.3C305.937 391.687 307.1 390.08 308.28 388.48C312.193 383.08 316.213 377.687 320.34 372.3C321.46 370.807 322.597 369.32 323.75 367.84C331.79 357.42 340.187 347.047 348.94 336.72C479.4 182.66 636.58 101.39 700 155.12C763.42 208.85 709.1 377.26 578.64 531.25Z" fill="#FFA800"/>
<path d="M700 155.12C636.57 101.38 479.39 182.65 349 336.66C340.253 346.98 331.853 357.35 323.8 367.77C322.65 369.25 321.51 370.77 320.38 372.23C316.273 377.617 312.257 383.007 308.33 388.4C307.14 390.01 305.98 391.63 304.84 393.23C296.767 404.477 289.153 415.683 282 426.85C279.547 430.663 277.153 434.467 274.82 438.26C249.61 479.04 230.4 518.85 217.9 555.26C193.48 626.51 194.79 684.94 227.58 712.73C237.96 721.51 250.85 726.73 265.71 728.52C341.71 737.93 469.53 660.02 578.71 531.22C709.09 377.26 763.43 208.87 700 155.12ZM577.66 512.82C494 611.54 396 671.27 337.81 664.05C334.314 663.63 330.859 662.921 327.48 661.93C320.548 659.968 314.11 656.56 308.59 651.93C284.53 631.53 282.59 589.61 298.88 538.15C299.61 535.87 300.37 533.56 301.16 531.24C310.73 503.29 325.48 472.78 344.79 441.52C346.577 438.62 348.41 435.71 350.29 432.79C355.777 424.243 361.607 415.66 367.78 407.04C368.66 405.81 369.54 404.57 370.45 403.34C373.45 399.19 376.53 395.07 379.69 390.94C380.55 389.79 381.43 388.65 382.3 387.52C388.473 379.52 394.91 371.57 401.61 363.67C501.61 245.67 622.07 183.35 670.68 224.54C719.29 265.73 677.64 394.8 577.66 512.82Z" fill="#FF9700"/>
<path d="M439.1 289.39C451.056 275.983 463.909 263.404 477.57 251.74C484.35 245.84 491.43 240.28 498.62 234.87C505.81 229.46 513.29 224.4 520.88 219.53C536.083 209.74 552.28 201.588 569.2 195.21C573.44 193.65 577.743 192.25 582.11 191.01C584.29 190.43 586.49 189.86 588.69 189.34C590.89 188.82 593.09 188.34 595.33 187.97C599.782 187.175 604.276 186.637 608.79 186.36C613.288 186.119 617.797 186.22 622.28 186.66C620.03 186.82 617.8 186.86 615.59 187.15C613.38 187.44 611.16 187.69 608.97 188C604.591 188.722 600.252 189.666 595.97 190.83C587.42 193.127 579.045 196.035 570.91 199.53C554.646 206.588 538.978 214.949 524.06 224.53C516.53 229.22 509.19 234.23 501.94 239.38C500.13 240.67 498.3 241.94 496.51 243.25L491.13 247.25C487.59 249.95 484.02 252.6 480.5 255.34C476.98 258.08 473.5 260.85 470.01 263.63L464.8 267.83L459.63 272.09C452.72 277.76 446 283.6 439.1 289.39Z" fill="white"/>
<path d="M578.64 531.25C482.45 644.78 371.74 718.77 294.82 728.25C369.91 708.91 469.06 638.47 556.29 535.54C686.75 381.54 741.08 213.15 677.66 159.41C660.98 145.29 637.85 140.48 610.42 143.89C647.66 134.32 678.99 137.3 700.01 155.1C763.43 208.86 709.1 377.26 578.64 531.25Z" fill="#FFC200"/>
<path d="M725.25 206.16L725.84 210.59C726.03 212.06 726.27 213.54 726.35 215.02C726.56 218.02 726.88 220.96 726.9 223.95L727 228.42C727 229.91 727 231.42 726.92 232.9L726.81 237.37L726.51 241.84C725.626 253.758 723.912 265.6 721.38 277.28C718.86 288.97 715.64 300.49 711.99 311.87C708.34 323.25 703.99 334.41 699.48 345.46C690.244 367.501 679.692 388.966 667.88 409.74C656.073 430.507 643.29 450.67 629.53 470.23C622.71 480.02 615.53 489.57 608.32 499.07C601.11 508.57 593.6 517.87 585.88 526.97C570.5 545.22 554.48 562.97 537.58 579.77C520.68 596.57 503.1 612.77 484.79 628.03C475.55 635.57 466.153 642.903 456.6 650.03C451.78 653.52 447 657.03 442.08 660.42C437.16 663.81 432.2 667.07 427.23 670.34C432.03 666.82 436.85 663.34 441.55 659.7C446.25 656.06 450.97 652.44 455.64 648.78C464.913 641.34 473.997 633.673 482.89 625.78C491.77 617.89 500.57 609.92 509.09 601.66C511.25 599.66 513.34 597.52 515.47 595.45C517.6 593.38 519.72 591.31 521.81 589.21C525.97 584.98 530.19 580.81 534.26 576.49L540.4 570.05L546.45 563.53C550.51 559.21 554.45 554.76 558.45 550.38C566.29 541.48 574.08 532.53 581.57 523.38C589.06 514.23 596.48 504.94 603.72 495.55C610.96 486.16 617.94 476.55 624.72 466.82C631.5 457.09 638.15 447.29 644.57 437.33C650.99 427.37 657 417.2 663 407C674.903 386.511 685.663 365.378 695.23 343.7C699.97 332.853 704.333 321.853 708.32 310.7C712.24 299.53 715.71 288.19 718.56 276.7C724.31 253.7 727.6 229.89 725.25 206.16Z" fill="#F9D987"/>
<path d="M482 657C485.047 656.793 488.098 657.357 490.87 658.64C493.676 659.931 496.19 661.778 498.26 664.07C502.42 668.67 504.89 674.52 506.38 680.43C507.777 686.359 508.534 692.42 508.64 698.51L509.34 716.51L509.89 734.51C510.01 740.51 510.19 746.51 510.26 752.51C510.46 764.51 510.55 776.51 510.34 788.51C509.34 776.51 508.56 764.51 507.92 752.57C507.57 746.57 507.34 740.57 507.05 734.57L506.35 716.57L505.81 698.57C505.74 695.57 505.65 692.63 505.4 689.67C505.136 686.735 504.705 683.817 504.11 680.93C502.87 675.21 500.82 669.56 497.11 664.99C495.286 662.691 493.026 660.774 490.46 659.35C489.166 658.635 487.793 658.071 486.37 657.67C484.952 657.245 483.481 657.019 482 657Z" fill="white"/>
<path d="M543.63 612.06C538.06 620.26 533.07 628.75 528.29 637.37C525.87 641.67 523.47 646 521.45 650.51C519.448 655.029 517.748 659.676 516.36 664.42C514.99 669.17 513.73 673.94 512.66 678.74C512.36 679.94 512.15 681.15 511.9 682.35C511.65 683.55 511.41 684.76 511.22 685.98L510.58 689.61L510.05 693.26C508.64 703.021 507.995 712.878 508.12 722.74C508.122 722.754 508.12 722.767 508.116 722.78C508.111 722.793 508.104 722.805 508.094 722.814C508.085 722.824 508.073 722.831 508.06 722.836C508.047 722.84 508.034 722.842 508.02 722.84C508.008 722.841 507.996 722.84 507.985 722.837C507.973 722.834 507.963 722.828 507.953 722.821C507.944 722.813 507.936 722.804 507.931 722.794C507.925 722.783 507.921 722.772 507.92 722.76C507.247 717.829 506.912 712.857 506.92 707.88C506.87 705.39 507.06 702.88 507.17 700.41C507.25 699.16 507.39 697.93 507.5 696.68C507.61 695.43 507.74 694.2 507.92 692.97C509.294 683.091 511.769 673.398 515.3 664.07C517.03 659.42 518.96 654.84 520.84 650.26C522.72 645.68 524.61 641.06 526.84 636.6C529.081 632.155 531.595 627.853 534.37 623.72C537.104 619.563 540.153 615.621 543.49 611.93C543.51 611.911 543.537 611.9 543.565 611.9C543.593 611.9 543.62 611.911 543.64 611.93C543.654 611.949 543.661 611.973 543.659 611.997C543.657 612.021 543.647 612.043 543.63 612.06Z" fill="white"/>
<path opacity="0.5" d="M457.87 453.6C457.87 453.6 417.32 584.93 327.48 661.93C299.16 686.21 265.95 705.09 227.56 712.77C194.77 684.98 193.46 626.55 217.88 555.3C245.593 553.735 272.906 547.959 298.88 538.17C377.83 508.96 430.08 453.3 430.08 453.3L457.87 453.6Z" fill="#FF8B00"/>
<path d="M463.79 439.56C463.772 444.36 461.993 448.985 458.79 452.56C458.48 452.91 458.16 453.25 457.84 453.56C455.996 455.365 453.814 456.789 451.419 457.751C449.024 458.713 446.463 459.194 443.883 459.166C441.302 459.138 438.752 458.602 436.379 457.589C434.005 456.576 431.855 455.105 430.05 453.26L228.79 248L228.21 247.42L456.17 424C458.546 425.838 460.468 428.196 461.79 430.894C463.111 433.591 463.795 436.556 463.79 439.56Z" fill="#FE5C09"/>
<path d="M457.87 453.6C456.026 455.405 453.844 456.829 451.449 457.791C449.054 458.753 446.494 459.234 443.913 459.206C441.332 459.178 438.782 458.642 436.409 457.629C434.036 456.616 431.885 455.145 430.08 453.3L228.79 248C240 258.94 395.51 411.07 457.87 453.6Z" fill="#EA520F"/>
<path d="M283.24 402C283.007 410.38 282.5 418.76 281.72 427.14C279.24 431.1 276.847 435.053 274.54 439C277.809 412.801 278.753 386.365 277.36 360C276.61 346.06 275.36 332.11 273.36 318.27C271.443 304.39 268.705 290.636 265.16 277.08C270.05 290.22 273.41 303.94 276.22 317.74C278.93 331.581 280.86 345.563 282 359.62C283.148 373.716 283.561 387.861 283.24 402Z" fill="#FFA800"/>
<path d="M324.73 367C323.59 368.48 322.44 370 321.32 371.45C320.61 369.62 318.94 364.05 318.27 362.2C317.12 359.09 316.07 355.96 315.02 352.82C313.97 349.68 313.02 346.52 312.07 343.34C310.21 336.99 308.53 330.59 307.28 324.08C307.272 324.009 307.29 323.938 307.329 323.879C307.369 323.82 307.429 323.777 307.497 323.758C307.565 323.739 307.639 323.745 307.703 323.774C307.768 323.804 307.82 323.856 307.85 323.92C312.6 336.23 317.46 348.43 322.57 360.52L324.73 367Z" fill="#FFA800"/>
<path d="M309 387.76C307.96 389.48 306.93 391.2 305.91 392.92C305.16 390.41 304.41 387.92 303.67 385.37C301.55 378.11 299.51 370.813 297.55 363.48L294.55 352.48L291.65 341.48C287.81 326.8 283.96 312.12 280.46 297.28C280.44 297.204 280.448 297.124 280.483 297.054C280.518 296.984 280.577 296.929 280.65 296.9C280.719 296.881 280.793 296.889 280.856 296.922C280.919 296.956 280.967 297.012 280.99 297.08C286.48 311.15 291.22 325.54 295.74 340.01C297.993 347.25 300.15 354.523 302.21 361.83C304.27 369.137 306.223 376.47 308.07 383.83C308.42 385.2 308.72 386.48 309 387.76Z" fill="#FFA800"/>
<path d="M265.51 277C274.42 302.74 279.01 329.86 281.22 357C282.278 370.609 282.612 384.265 282.22 397.91C281.762 411.557 280.607 425.171 278.76 438.7L277.23 448.82L275.37 458.89C274.8 462.26 273.96 465.57 273.24 468.89C272.52 472.21 271.81 475.57 270.87 478.89L268.23 488.78C267.28 492.06 266.23 495.31 265.23 498.57L263.72 503.46L262.01 508.29L258.56 517.92L254.71 527.4L252.79 532.14L250.68 536.8L246.45 546.11C244.96 549.17 243.38 552.19 241.84 555.23C238.84 561.35 235.31 567.23 231.96 573.12C230.33 576.12 228.43 578.94 226.63 581.82L221.14 590.42L226.25 581.59C227.94 578.59 229.75 575.76 231.25 572.72C234.4 566.72 237.71 560.72 240.51 554.58C241.96 551.51 243.51 548.48 244.89 545.39L248.89 536.05L250.89 531.37L252.7 526.62L256.33 517.12C265.461 491.579 271.959 465.172 275.72 438.31C277.58 424.89 278.78 411.397 279.32 397.83C279.83 384.29 279.6 370.72 278.83 357.18C278.038 343.634 276.54 330.139 274.34 316.75C272.294 303.317 269.344 290.036 265.51 277Z" fill="white"/>
<path d="M307.85 324C316.343 348.872 326.236 373.244 337.48 397C340.24 403 343.09 408.89 346.08 414.75C349.07 420.61 352.18 426.41 355.54 432.06C358.9 437.71 362.44 443.27 366.18 448.68C369.92 454.09 373.91 459.32 378 464.46C382.09 469.6 386.45 474.46 390.88 479.34C395.31 484.22 399.94 488.82 404.75 493.25C409.56 497.68 414.56 501.91 419.75 505.85C424.973 509.777 430.397 513.429 436 516.79C441.578 520.176 447.378 523.183 453.36 525.79C459.327 528.438 465.488 530.624 471.79 532.33C478.098 534.033 484.517 535.292 491 536.1C497.523 536.834 504.086 537.168 510.65 537.1C510.691 537.1 510.73 537.115 510.76 537.143C510.789 537.171 510.807 537.209 510.81 537.25C510.81 537.288 510.796 537.325 510.77 537.353C510.744 537.381 510.708 537.398 510.67 537.4C504.078 537.962 497.452 538.029 490.85 537.6C484.228 537.089 477.655 536.069 471.19 534.55C458.24 531.397 445.828 526.342 434.36 519.55C428.642 516.154 423.135 512.414 417.87 508.35C412.64 504.26 407.63 499.89 402.82 495.35C398.01 490.81 393.47 485.96 389.11 480.97C384.75 475.98 380.64 470.81 376.71 465.5C368.82 454.9 361.61 443.84 354.71 432.6C347.81 421.36 341.2 409.92 335.23 398.13C332.27 392.23 329.49 386.23 326.89 380.13C324.29 374.03 321.82 367.907 319.48 361.76C314.766 349.419 310.786 336.811 307.56 324C307.551 323.962 307.557 323.921 307.578 323.887C307.599 323.854 307.632 323.829 307.67 323.82C307.694 323.817 307.719 323.819 307.743 323.827C307.766 323.835 307.787 323.848 307.804 323.865C307.822 323.883 307.835 323.904 307.843 323.927C307.851 323.951 307.853 323.976 307.85 324Z" fill="white"/>
<path d="M281.2 296.77C286.08 310.52 290.5 324.42 294.67 338.39C298.84 352.36 302.81 366.39 306.38 380.53C308.13 387.61 309.8 394.71 311.47 401.81L316.38 423.12L326.44 465.68C329.76 479.87 332.85 494.14 335.44 508.49C338.03 522.84 340.54 537.24 342.3 551.74C344.06 566.24 345.3 580.8 345.82 595.41C346.34 610.02 345.82 624.71 343.45 639.13C343.45 639.17 343.434 639.208 343.406 639.236C343.378 639.264 343.34 639.28 343.3 639.28C343.26 639.28 343.222 639.264 343.194 639.236C343.166 639.208 343.15 639.17 343.15 639.13L343.54 633.68C343.66 631.86 343.87 630.06 343.91 628.24C343.98 624.6 344.12 620.97 344.15 617.34C344.18 613.71 344.08 610.07 343.99 606.44L343.48 595.56L342.7 584.69C342.45 581.06 342.01 577.45 341.7 573.84C341.39 570.23 340.93 566.61 340.5 563C340.07 559.39 339.68 555.78 339.16 552.18C335.48 523.33 330.36 494.66 324.83 466.06C323.43 458.91 321.98 451.77 320.42 444.66C318.86 437.55 317.21 430.45 315.42 423.38C313.63 416.31 311.76 409.28 309.84 402.26L304 381.17L281 296.86C280.994 296.842 280.992 296.822 280.994 296.803C280.995 296.784 281.001 296.765 281.011 296.748C281.02 296.731 281.033 296.716 281.048 296.705C281.064 296.693 281.081 296.685 281.1 296.68C281.123 296.686 281.143 296.698 281.161 296.713C281.178 296.729 281.191 296.748 281.2 296.77Z" fill="white"/>
<path d="M241.9 553.51C251.351 549.518 261.292 546.805 271.46 545.44C276.562 544.736 281.71 544.422 286.86 544.5C292.04 544.587 297.2 545.166 302.27 546.23C307.358 547.326 312.287 549.059 316.94 551.39C319.254 552.572 321.485 553.909 323.62 555.39C325.722 556.89 327.727 558.523 329.62 560.28C337.25 567.35 342.62 576.42 346.39 585.89L345.52 586.01C346.07 581.26 346.95 576.59 347.94 571.93C348.93 567.27 350.11 562.66 351.5 558.09C352.89 553.52 354.5 549.02 356.3 544.6C358.136 540.171 360.243 535.86 362.61 531.69C367.323 523.256 373.387 515.652 380.56 509.18C387.835 502.687 396.453 497.879 405.8 495.1L404.7 496.46C405.472 489.305 406.809 482.223 408.7 475.28C410.487 468.281 413.141 461.532 416.6 455.19C418.394 452.006 420.618 449.086 423.21 446.51C425.821 443.877 429.054 441.944 432.61 440.89C436.17 439.948 439.921 440.006 443.45 441.06C446.906 442.061 450.183 443.6 453.16 445.62C453.173 445.633 453.184 445.649 453.191 445.666C453.198 445.683 453.202 445.701 453.202 445.72C453.202 445.739 453.198 445.757 453.191 445.774C453.184 445.791 453.173 445.807 453.16 445.82C453.139 445.852 453.107 445.875 453.07 445.885C453.033 445.894 452.993 445.889 452.96 445.87C451.42 445.005 449.83 444.23 448.2 443.55C446.59 442.853 444.915 442.313 443.2 441.94C441.508 441.555 439.775 441.377 438.04 441.41C436.321 441.459 434.618 441.748 432.98 442.27C429.725 443.371 426.802 445.277 424.48 447.81C422.098 450.342 420.078 453.193 418.48 456.28C415.303 462.533 412.918 469.157 411.38 476C410.54 479.42 409.83 482.867 409.25 486.34C408.66 489.8 408.15 493.34 407.83 496.76C407.802 497.068 407.684 497.36 407.49 497.601C407.296 497.841 407.035 498.018 406.74 498.11C402.318 499.491 398.05 501.321 394 503.57C389.957 505.857 386.148 508.537 382.63 511.57C375.605 517.72 369.609 524.955 364.87 533C362.447 537.025 360.257 541.185 358.31 545.46C356.31 549.727 354.55 554.097 353.03 558.57C349.894 567.492 347.689 576.714 346.45 586.09C346.44 586.191 346.396 586.286 346.324 586.359C346.253 586.432 346.16 586.478 346.059 586.491C345.958 586.504 345.856 586.482 345.769 586.429C345.682 586.376 345.615 586.295 345.58 586.2C343.709 581.497 341.339 577.008 338.51 572.81C335.649 568.665 332.261 564.91 328.43 561.64C326.53 560.023 324.526 558.533 322.43 557.18C318.203 554.523 313.67 552.387 308.93 550.82C306.568 550.013 304.16 549.346 301.72 548.82C291.855 546.786 281.729 546.327 271.72 547.46C266.681 547.973 261.674 548.758 256.72 549.81C251.74 550.85 246.825 552.179 242 553.79C241.982 553.798 241.962 553.802 241.942 553.801C241.922 553.801 241.903 553.796 241.885 553.788C241.867 553.779 241.851 553.767 241.838 553.752C241.825 553.737 241.816 553.719 241.81 553.7C241.797 553.663 241.799 553.622 241.816 553.587C241.833 553.551 241.863 553.524 241.9 553.51Z" fill="white"/>
<path d="M260.71 472.9C261.458 472.136 262.471 471.688 263.54 471.65C264.634 471.691 265.686 472.084 266.54 472.77C267.369 473.409 268.111 474.151 268.75 474.98C269.398 475.796 269.964 476.673 270.44 477.6L269.2 477.36C271.08 475.45 273.063 473.644 275.14 471.95C277.19 470.24 279.35 468.64 281.57 467.13C283.795 465.618 286.106 464.236 288.49 462.99C290.883 461.716 293.374 460.636 295.94 459.76C301.115 457.865 306.69 457.331 312.13 458.21C314.827 458.695 317.421 459.639 319.8 461C320.967 461.69 322.086 462.459 323.15 463.3C324.202 464.158 325.204 465.076 326.15 466.05L325.34 466.25C326.729 462.141 328.434 458.146 330.44 454.3C332.392 450.381 334.894 446.761 337.87 443.55C339.419 441.916 341.202 440.521 343.16 439.41C345.188 438.262 347.446 437.579 349.77 437.41C352.098 437.274 354.428 437.614 356.62 438.41C358.752 439.22 360.77 440.306 362.62 441.64L360.3 443C360.06 440.25 359.98 437.57 359.97 434.86C359.96 432.15 360.08 429.44 360.32 426.74C360.543 424.026 360.927 421.328 361.47 418.66C361.98 415.972 362.686 413.325 363.58 410.74C364.465 408.127 365.615 405.61 367.01 403.23C368.412 400.821 370.179 398.645 372.25 396.78C374.323 394.921 376.752 393.503 379.39 392.61C381.99 391.774 384.724 391.434 387.45 391.61C387.489 391.615 387.525 391.634 387.55 391.663C387.576 391.693 387.59 391.731 387.59 391.77C387.59 391.807 387.575 391.843 387.549 391.869C387.523 391.895 387.487 391.91 387.45 391.91C382.202 392.197 377.253 394.442 373.58 398.2C371.834 400.079 370.353 402.189 369.18 404.47C368.011 406.773 367.051 409.176 366.31 411.65C365.57 414.15 364.975 416.691 364.53 419.26C364.08 421.83 363.77 424.43 363.53 427.04C363.045 432.272 362.925 437.531 363.17 442.78V442.83C363.189 443.207 363.06 443.577 362.809 443.859C362.558 444.142 362.207 444.314 361.83 444.34C361.497 444.36 361.167 444.261 360.9 444.06C357.62 441.62 353.81 439.82 349.9 439.91C345.99 440 342.09 442 339 444.8C335.926 447.713 333.325 451.086 331.29 454.8C329.194 458.526 327.491 462.461 326.21 466.54C326.167 466.662 326.078 466.763 325.963 466.823C325.848 466.882 325.715 466.895 325.59 466.86C325.52 466.832 325.455 466.791 325.4 466.74C323.583 464.891 321.471 463.356 319.15 462.2C316.847 461.074 314.368 460.353 311.82 460.07C309.284 459.791 306.721 459.879 304.21 460.33C301.682 460.76 299.196 461.409 296.78 462.27C291.904 464.055 287.236 466.365 282.86 469.16C278.43 471.944 274.215 475.056 270.25 478.47C270.097 478.601 269.899 478.666 269.698 478.651C269.498 478.636 269.311 478.542 269.18 478.39C269.124 478.332 269.08 478.264 269.05 478.19C268.67 477.321 268.226 476.482 267.72 475.68C267.224 474.873 266.622 474.137 265.93 473.49C265.286 472.838 264.447 472.413 263.54 472.28C262.602 472.222 261.674 472.506 260.93 473.08C260.901 473.105 260.864 473.119 260.825 473.119C260.786 473.119 260.749 473.105 260.72 473.08C260.697 473.056 260.684 473.025 260.682 472.992C260.68 472.959 260.69 472.926 260.71 472.9Z" fill="white"/>
<path d="M278.26 430.68C279.768 427.216 281.659 423.932 283.9 420.89C286.121 417.783 288.763 415 291.75 412.62C294.787 410.172 298.47 408.661 302.35 408.27C304.273 408.139 306.204 408.339 308.06 408.86C309.878 409.429 311.613 410.236 313.22 411.26L312.74 411.44C313.507 408.645 314.445 405.9 315.55 403.22C316.624 400.481 318.071 397.904 319.85 395.56C320.777 394.346 321.887 393.283 323.14 392.41C324.446 391.443 326.002 390.87 327.623 390.759C329.244 390.647 330.864 391.001 332.29 391.78C333.651 392.507 334.901 393.427 336 394.51L334.19 395.27C334.27 393.012 334.575 390.768 335.1 388.57C335.59 386.335 336.452 384.199 337.65 382.25C338.257 381.237 339.065 380.359 340.025 379.671C340.985 378.982 342.076 378.499 343.23 378.25C344.367 378.048 345.535 378.1 346.65 378.4C347.729 378.666 348.77 379.066 349.75 379.59C349.764 379.594 349.777 379.6 349.789 379.609C349.8 379.619 349.809 379.63 349.816 379.643C349.822 379.656 349.826 379.671 349.826 379.685C349.826 379.7 349.823 379.714 349.817 379.728C349.811 379.741 349.803 379.753 349.792 379.762C349.781 379.772 349.768 379.779 349.754 379.783C349.74 379.787 349.725 379.788 349.71 379.786C349.696 379.784 349.682 379.778 349.67 379.77C347.696 378.976 345.531 378.788 343.45 379.23C342.485 379.537 341.593 380.037 340.826 380.699C340.06 381.36 339.435 382.17 338.99 383.08C338.026 384.937 337.352 386.93 336.99 388.99C336.584 391.067 336.36 393.175 336.32 395.29C336.316 395.496 336.253 395.695 336.138 395.866C336.023 396.037 335.862 396.17 335.673 396.252C335.484 396.333 335.276 396.358 335.073 396.324C334.871 396.29 334.682 396.198 334.53 396.06C332.53 394.21 330.21 392.7 327.74 392.8C325.27 392.9 322.98 394.63 321.19 396.69C319.401 398.843 317.861 401.191 316.6 403.69C315.295 406.221 314.214 408.861 313.37 411.58C313.359 411.621 313.339 411.659 313.313 411.692C313.286 411.726 313.253 411.753 313.216 411.774C313.179 411.794 313.138 411.807 313.096 411.812C313.054 411.816 313.011 411.812 312.97 411.8H312.88C311.345 410.774 309.658 409.998 307.88 409.5C306.103 409.081 304.261 409.02 302.46 409.32C298.86 409.88 295.71 411.87 292.83 414.05C289.96 416.343 287.342 418.934 285.02 421.78C282.652 424.651 280.452 427.656 278.43 430.78C278.41 430.796 278.386 430.805 278.36 430.805C278.335 430.805 278.31 430.796 278.29 430.78C278.277 430.767 278.268 430.751 278.262 430.734C278.257 430.716 278.256 430.698 278.26 430.68Z" fill="white"/>
<path d="M405.59 495.2C405.109 495.024 404.717 494.664 404.5 494.2C404.391 493.96 404.331 493.702 404.322 493.439C404.314 493.176 404.357 492.914 404.45 492.667C404.543 492.421 404.684 492.196 404.864 492.004C405.044 491.812 405.26 491.658 405.5 491.55L417.5 486.04C417.946 485.837 418.452 485.805 418.92 485.95L435.13 491C435.403 491.058 435.66 491.172 435.886 491.335C436.112 491.498 436.302 491.706 436.442 491.947C436.583 492.187 436.672 492.454 436.703 492.731C436.735 493.008 436.708 493.288 436.625 493.554C436.541 493.82 436.403 494.066 436.22 494.275C436.036 494.485 435.811 494.654 435.558 494.771C435.305 494.888 435.031 494.951 434.752 494.956C434.473 494.961 434.197 494.908 433.94 494.8L418.45 490L407.14 495.19C406.895 495.295 406.632 495.35 406.366 495.351C406.1 495.353 405.836 495.302 405.59 495.2Z" fill="#1A1A1A"/>
<path d="M428.35 505.6C428.18 505.53 428.018 505.439 427.87 505.33L417.16 497.23L410.75 497.76C410.22 497.804 409.693 497.635 409.287 497.291C408.881 496.947 408.629 496.455 408.585 495.925C408.541 495.395 408.71 494.868 409.054 494.462C409.398 494.056 409.89 493.804 410.42 493.76L417.59 493.15C418.08 493.11 418.568 493.253 418.96 493.55L430.28 502.11C430.665 502.401 430.932 502.821 431.031 503.294C431.131 503.766 431.056 504.259 430.821 504.68C430.586 505.102 430.206 505.424 429.752 505.588C429.298 505.751 428.8 505.745 428.35 505.57V505.6Z" fill="#1A1A1A"/>
<path d="M415.47 520.48C415.122 520.343 414.819 520.111 414.597 519.81C414.374 519.51 414.24 519.153 414.21 518.78L413.08 504.83L404.28 502.99C403.787 502.857 403.364 502.541 403.097 502.107C402.83 501.673 402.739 501.153 402.842 500.653C402.946 500.154 403.236 499.713 403.654 499.42C404.072 499.128 404.585 499.006 405.09 499.08L415.36 501.22C415.782 501.309 416.164 501.533 416.449 501.857C416.734 502.182 416.906 502.59 416.94 503.02L418.18 518.46C418.221 518.988 418.052 519.51 417.709 519.913C417.366 520.316 416.877 520.567 416.35 520.61C416.051 520.629 415.751 520.584 415.47 520.48Z" fill="#1A1A1A"/>
<path d="M399 492.63C398.75 492.533 398.522 492.386 398.329 492.199C398.137 492.012 397.984 491.788 397.88 491.54L393 480.08L378.3 473.19C377.83 472.958 377.47 472.552 377.296 472.057C377.123 471.563 377.151 471.02 377.374 470.546C377.596 470.071 377.996 469.704 378.487 469.521C378.978 469.339 379.522 469.356 380 469.57L395.39 476.79C395.834 476.99 396.19 477.346 396.39 477.79L401.52 490C401.671 490.361 401.713 490.759 401.64 491.144C401.568 491.528 401.383 491.883 401.111 492.164C400.838 492.446 400.489 492.641 400.107 492.725C399.724 492.81 399.326 492.78 398.96 492.64L399 492.63Z" fill="#1A1A1A"/>
<path d="M375.16 484.91C374.723 484.727 374.365 484.395 374.15 483.972C373.935 483.55 373.877 483.065 373.987 482.604C374.096 482.143 374.365 481.736 374.747 481.455C375.128 481.174 375.597 481.037 376.07 481.07L390.2 482.4C390.69 482.445 391.145 482.67 391.48 483.03L396.36 488.32C396.702 488.713 396.878 489.223 396.849 489.743C396.821 490.263 396.591 490.752 396.208 491.105C395.825 491.458 395.319 491.647 394.799 491.634C394.278 491.62 393.783 491.403 393.42 491.03L389.06 486.3L375.69 485C375.51 484.997 375.331 484.967 375.16 484.91Z" fill="#1A1A1A"/>
<path d="M374.6 504.59C374.319 504.477 374.066 504.303 373.86 504.08C373.502 503.691 373.312 503.176 373.333 502.647C373.353 502.119 373.583 501.62 373.97 501.26L385.31 490.72C385.627 490.427 386.03 490.245 386.459 490.2C386.887 490.155 387.319 490.249 387.69 490.47L396.69 495.82C397.144 496.092 397.472 496.534 397.602 497.047C397.731 497.561 397.651 498.105 397.38 498.56C397.108 499.012 396.668 499.338 396.157 499.467C395.646 499.596 395.104 499.518 394.65 499.25L386.91 494.66L376.66 504.19C376.387 504.441 376.05 504.611 375.687 504.682C375.323 504.753 374.947 504.721 374.6 504.59Z" fill="#1A1A1A"/>
<path d="M401.22 506.09C398.249 506.245 395.325 505.305 393.003 503.447C390.68 501.589 389.12 498.943 388.619 496.011C388.118 493.078 388.711 490.065 390.286 487.541C391.86 485.017 394.306 483.159 397.16 482.32C398.802 481.843 400.527 481.719 402.221 481.955C403.914 482.191 405.539 482.783 406.988 483.691C408.438 484.598 409.679 485.802 410.63 487.223C411.582 488.644 412.223 490.25 412.511 491.936C412.798 493.621 412.727 495.349 412.301 497.005C411.874 498.661 411.103 500.209 410.037 501.546C408.971 502.883 407.634 503.98 406.115 504.765C404.596 505.55 402.927 506.005 401.22 506.1V506.09Z" fill="black"/>
<path d="M401.22 506.09C398.249 506.245 395.325 505.305 393.003 503.447C390.68 501.589 389.12 498.943 388.619 496.011C388.118 493.079 388.711 490.065 390.286 487.541C391.86 485.017 394.306 483.159 397.16 482.32C400.126 482.175 403.042 483.122 405.358 484.981C407.674 486.841 409.228 489.484 409.728 492.411C410.228 495.338 409.638 498.347 408.071 500.869C406.503 503.392 404.066 505.252 401.22 506.1V506.09Z" fill="#1A1A1A"/>
<path d="M398.986 494.335C399.681 492.549 398.921 490.587 397.289 489.952C395.658 489.318 393.772 490.251 393.077 492.037C392.383 493.823 393.142 495.786 394.774 496.42C396.406 497.055 398.292 496.121 398.986 494.335Z" fill="white"/>
<path d="M397.165 494.555C397.443 493.839 397.343 493.133 396.941 492.976C396.54 492.82 395.989 493.274 395.711 493.989C395.432 494.705 395.532 495.411 395.934 495.567C396.335 495.724 396.886 495.27 397.165 494.555Z" fill="black"/>
<path d="M403.849 496.241C404.544 494.454 403.784 492.492 402.152 491.858C400.521 491.223 398.635 492.157 397.94 493.943C397.246 495.729 398.005 497.691 399.637 498.326C401.269 498.96 403.155 498.027 403.849 496.241Z" fill="white"/>
<path d="M402.031 496.441C402.309 495.725 402.209 495.019 401.808 494.862C401.406 494.706 400.855 495.16 400.577 495.875C400.299 496.591 400.399 497.297 400.8 497.453C401.202 497.61 401.753 497.156 402.031 496.441Z" fill="black"/>
<path d="M508.37 702.89C508.172 702.941 507.966 702.952 507.763 702.923C507.561 702.894 507.366 702.825 507.19 702.72C506.826 702.509 506.56 702.162 506.451 701.755C506.343 701.348 506.4 700.915 506.61 700.55L511.89 691.42C512.09 691.083 512.407 690.83 512.78 690.71L525.68 686.54C525.883 686.448 526.103 686.399 526.326 686.397C526.549 686.395 526.77 686.44 526.974 686.529C527.179 686.618 527.362 686.749 527.512 686.914C527.663 687.078 527.777 687.273 527.848 687.484C527.918 687.696 527.943 687.92 527.922 688.142C527.9 688.363 527.832 688.578 527.722 688.772C527.612 688.966 527.462 689.135 527.283 689.267C527.103 689.399 526.898 689.492 526.68 689.54L514.36 693.54L509.36 702.13C509.257 702.318 509.115 702.483 508.945 702.614C508.775 702.745 508.579 702.839 508.37 702.89Z" fill="#1A1A1A"/>
<path d="M528 699.17C527.854 699.19 527.706 699.19 527.56 699.17L516.85 698.83L512.93 702.14C512.603 702.382 512.196 702.49 511.793 702.442C511.389 702.395 511.019 702.196 510.756 701.885C510.494 701.575 510.36 701.176 510.381 700.77C510.402 700.364 510.577 699.982 510.87 699.7L515.27 696C515.57 695.75 515.95 695.619 516.34 695.63L527.66 695.99C528.039 696.01 528.399 696.165 528.674 696.426C528.95 696.687 529.124 697.038 529.165 697.415C529.206 697.793 529.111 698.173 528.898 698.487C528.684 698.801 528.366 699.029 528 699.13V699.17Z" fill="#1A1A1A"/>
<path d="M526.46 714.8C526.169 714.872 525.863 714.861 525.578 714.767C525.294 714.674 525.041 714.501 524.85 714.27L517.69 705.7L511.11 708.56C510.918 708.643 510.712 708.688 510.503 708.692C510.294 708.696 510.086 708.658 509.892 708.581C509.697 708.505 509.519 708.391 509.369 708.245C509.219 708.1 509.098 707.927 509.015 707.735C508.932 707.543 508.887 707.337 508.883 707.128C508.879 706.919 508.917 706.711 508.994 706.517C509.07 706.322 509.184 706.145 509.33 705.994C509.475 705.844 509.648 705.723 509.84 705.64L517.51 702.31C517.826 702.172 518.178 702.14 518.513 702.219C518.849 702.299 519.15 702.485 519.37 702.75L527.29 712.23C527.425 712.39 527.527 712.575 527.591 712.774C527.654 712.973 527.677 713.183 527.658 713.392C527.64 713.6 527.58 713.803 527.482 713.988C527.385 714.173 527.251 714.337 527.09 714.47C526.906 714.624 526.691 714.737 526.46 714.8Z" fill="#1A1A1A"/>
<path d="M502.87 704.26C502.663 704.313 502.447 704.323 502.236 704.29C502.024 704.258 501.822 704.183 501.64 704.07L493.21 698.83L480.46 701.12C480.044 701.19 479.617 701.094 479.271 700.853C478.926 700.612 478.688 700.244 478.61 699.83C478.54 699.417 478.637 698.992 478.878 698.649C479.12 698.307 479.487 698.073 479.9 698L493.25 695.61C493.636 695.543 494.034 695.618 494.37 695.82L503.32 701.39C503.498 701.5 503.653 701.643 503.775 701.812C503.898 701.982 503.986 702.174 504.034 702.377C504.083 702.581 504.09 702.792 504.057 702.998C504.024 703.204 503.95 703.402 503.84 703.58C503.62 703.926 503.271 704.171 502.87 704.26Z" fill="#1A1A1A"/>
<path d="M483.81 710.21C483.434 710.313 483.033 710.274 482.684 710.101C482.335 709.928 482.061 709.632 481.916 709.27C481.77 708.909 481.762 708.506 481.894 708.139C482.026 707.772 482.288 707.466 482.63 707.28L492.45 701.64C492.788 701.443 493.187 701.378 493.57 701.46L499.19 702.66C499.595 702.755 499.946 703.005 500.169 703.356C500.392 703.707 500.468 704.131 500.382 704.538C500.296 704.945 500.053 705.301 499.707 705.532C499.361 705.762 498.939 705.848 498.53 705.77L493.53 704.7L484.22 710C484.097 710.093 483.958 710.165 483.81 710.21Z" fill="#1A1A1A"/>
<path d="M492.51 723.28C492.277 723.335 492.033 723.335 491.8 723.28C491.388 723.194 491.027 722.947 490.796 722.594C490.565 722.242 490.484 721.812 490.57 721.4L493.1 709.3C493.17 708.964 493.347 708.659 493.605 708.432C493.863 708.205 494.187 708.067 494.53 708.04L502.87 707.37C503.088 707.335 503.31 707.346 503.524 707.401C503.737 707.457 503.937 707.555 504.11 707.691C504.283 707.828 504.427 707.998 504.531 708.192C504.636 708.386 504.699 708.6 504.717 708.82C504.735 709.039 504.707 709.26 504.636 709.469C504.564 709.677 504.45 709.869 504.301 710.031C504.152 710.194 503.971 710.324 503.77 710.413C503.568 710.502 503.35 710.549 503.13 710.55L495.97 711.12L493.68 722.05C493.623 722.346 493.483 722.619 493.276 722.837C493.068 723.055 492.802 723.209 492.51 723.28Z" fill="#1A1A1A"/>
<path d="M510.54 712C509.466 712.852 508.221 713.463 506.89 713.79C504.929 714.277 502.866 714.14 500.987 713.397C499.108 712.654 497.509 711.342 496.413 709.645C495.316 707.948 494.778 705.951 494.872 703.933C494.967 701.915 495.69 699.977 496.94 698.39C497.786 697.312 498.852 696.426 500.066 695.79C501.28 695.154 502.615 694.783 503.983 694.702C505.351 694.62 506.721 694.829 508.002 695.316C509.284 695.803 510.447 696.555 511.416 697.525C512.384 698.494 513.136 699.658 513.622 700.94C514.108 702.221 514.316 703.591 514.234 704.959C514.151 706.327 513.779 707.662 513.142 708.876C512.505 710.09 511.619 711.154 510.54 712Z" fill="black"/>
<path d="M510.54 712C509.466 712.853 508.221 713.463 506.89 713.79C504.929 714.277 502.866 714.14 500.987 713.397C499.108 712.654 497.509 711.342 496.413 709.645C495.316 707.948 494.778 705.951 494.872 703.933C494.967 701.915 495.69 699.977 496.94 698.39C498.804 696.928 501.139 696.2 503.504 696.343C505.868 696.486 508.099 697.491 509.773 699.166C511.447 700.842 512.45 703.073 512.591 705.438C512.733 707.802 512.003 710.137 510.54 712Z" fill="#1A1A1A"/>
<path d="M501.839 708.684C503.194 708.345 503.993 706.868 503.622 705.383C503.251 703.899 501.851 702.971 500.496 703.309C499.14 703.648 498.342 705.126 498.713 706.61C499.084 708.094 500.483 709.023 501.839 708.684Z" fill="white"/>
<path d="M502.205 707.572C502.537 707.489 502.686 706.94 502.537 706.345C502.388 705.75 501.999 705.335 501.666 705.418C501.334 705.501 501.185 706.051 501.334 706.645C501.483 707.24 501.872 707.655 502.205 707.572Z" fill="black"/>
<path d="M505.883 707.672C507.239 707.334 508.037 705.856 507.666 704.372C507.295 702.888 505.896 701.959 504.54 702.298C503.184 702.636 502.386 704.114 502.757 705.598C503.128 707.083 504.527 708.011 505.883 707.672Z" fill="white"/>
<path d="M506.239 706.563C506.572 706.48 506.72 705.93 506.572 705.336C506.423 704.741 506.033 704.326 505.701 704.409C505.369 704.492 505.22 705.041 505.369 705.636C505.517 706.231 505.907 706.646 506.239 706.563Z" fill="black"/>
<path d="M801.62 653.63H676.19C673.109 653.625 670.083 652.81 667.416 651.266C664.75 649.722 662.536 647.504 660.997 644.835C659.458 642.166 658.648 639.138 658.649 636.057C658.649 632.976 659.46 629.949 661 627.28L723.71 518.66C725.252 515.989 727.47 513.772 730.141 512.23C732.812 510.688 735.841 509.877 738.925 509.877C742.009 509.877 745.038 510.688 747.709 512.23C750.38 513.772 752.598 515.989 754.14 518.66L756.08 522.02V522.08L785.47 573L816.83 627.31C818.363 629.98 819.168 633.005 819.164 636.084C819.16 639.162 818.347 642.186 816.806 644.851C815.266 647.517 813.052 649.731 810.387 651.271C807.722 652.812 804.699 653.625 801.62 653.63Z" fill="#FFC200"/>
<path d="M739.3 547.65H738.52C736.41 547.65 734.7 549.36 734.7 551.47V606.03C734.7 608.14 736.41 609.85 738.52 609.85H739.3C741.41 609.85 743.12 608.14 743.12 606.03V551.47C743.12 549.36 741.41 547.65 739.3 547.65Z" fill="white"/>
<path d="M738.91 631.64C742.908 631.64 746.15 628.399 746.15 624.4C746.15 620.401 742.908 617.16 738.91 617.16C734.911 617.16 731.67 620.401 731.67 624.4C731.67 628.399 734.911 631.64 738.91 631.64Z" fill="white"/>
<path d="M357.29 239.94H308.29C307.085 239.94 305.901 239.622 304.857 239.019C303.813 238.417 302.946 237.55 302.344 236.506C301.741 235.463 301.423 234.279 301.422 233.074C301.422 231.868 301.738 230.684 302.34 229.64L326.85 187.18C327.455 186.138 328.323 185.273 329.367 184.672C330.411 184.071 331.595 183.754 332.8 183.754C334.005 183.754 335.189 184.071 336.233 184.672C337.277 185.273 338.145 186.138 338.75 187.18L339.51 188.5L351 208.41L363.26 229.64C363.862 230.686 364.179 231.872 364.177 233.079C364.176 234.286 363.856 235.471 363.251 236.515C362.646 237.559 361.776 238.426 360.73 239.027C359.683 239.628 358.497 239.943 357.29 239.94Z" fill="#FFC200"/>
<path d="M332.93 198.52H332.62C331.797 198.52 331.13 199.187 331.13 200.01V221.34C331.13 222.163 331.797 222.83 332.62 222.83H332.93C333.753 222.83 334.42 222.163 334.42 221.34V200.01C334.42 199.187 333.753 198.52 332.93 198.52Z" fill="white"/>
<path d="M332.77 231.35C334.333 231.35 335.6 230.083 335.6 228.52C335.6 226.957 334.333 225.69 332.77 225.69C331.207 225.69 329.94 226.957 329.94 228.52C329.94 230.083 331.207 231.35 332.77 231.35Z" fill="white"/>
</svg>
