<svg width="150" height="150" viewBox="0 0 150 150" fill="none" xmlns="http://www.w3.org/2000/svg">
<path d="M73.7078 126.344C105.145 125.884 130.581 122.187 130.521 118.089C130.461 113.99 104.927 111.041 73.4902 111.502C42.0531 111.963 16.6171 115.659 16.6772 119.758C16.7372 123.856 42.2708 126.805 73.7078 126.344Z" fill="#E6E6E6"/>
<path d="M119.642 75.789C119.647 81.11 118.728 86.3915 116.927 91.398C110.534 109.143 93.549 121.83 73.602 121.83C48.1725 121.83 27.561 101.216 27.561 75.789C27.5614 63.5784 32.4123 51.8681 41.0466 43.2341C49.6809 34.6 61.3914 29.7495 73.602 29.7495C99.0285 29.7495 119.642 50.361 119.642 75.789Z" fill="#8CC63F"/>
<path d="M72.243 36.855C76.1265 36.417 80.1195 36.7665 83.9565 37.755C91.7198 39.7839 98.5875 44.3381 103.477 50.7C105.877 53.85 107.77 57.384 108.877 61.134C107.929 59.4479 106.897 57.8104 105.784 56.2275C104.682 54.6652 103.487 53.17 102.207 51.75C99.669 48.9335 96.7887 46.4457 93.633 44.3445C90.4758 42.2474 87.065 40.5599 83.4825 39.3225C81.6773 38.6978 79.8359 38.1828 77.9685 37.7805C76.0935 37.3755 74.184 37.0845 72.243 36.855Z" fill="white"/>
<path d="M116.927 91.3979C110.534 109.143 93.549 121.83 73.602 121.83C48.1725 121.83 27.561 101.215 27.561 75.7889C27.5437 63.8822 32.1567 52.4352 40.425 43.8674C40.425 43.8674 52.6245 110.815 116.927 91.3979Z" fill="#89B741"/>
<path opacity="0.2" d="M98.4915 111.325C93.9585 115.543 88.6217 118.803 82.8 120.91C79.774 121.524 76.694 121.832 73.6065 121.83C48.177 121.83 27.5655 101.215 27.5655 75.7889C27.547 63.8828 32.1584 52.4359 40.425 43.8674C35.1674 51.5233 32.3604 60.5961 32.376 69.8834C32.376 95.3114 52.9875 115.923 78.4155 115.923C85.3697 115.934 92.2351 114.362 98.4915 111.325Z" fill="#4D4D4D"/>
<path opacity="0.6" d="M119.642 75.789C119.647 81.11 118.728 86.3915 116.927 91.398C110.534 109.143 93.549 121.83 73.602 121.83C58.1985 121.83 44.5635 114.266 36.207 102.651C44.6445 112.623 57.057 118.922 70.887 118.922C90.837 118.922 107.82 105.822 114.212 87.4995C118.291 75.7394 117.755 62.8692 112.712 51.489C117.254 58.7793 119.655 67.1996 119.642 75.789Z" fill="white"/>
<path d="M67.038 93.9211C66.5945 93.9218 66.1552 93.8348 65.7453 93.6652C65.3355 93.4956 64.9633 93.2466 64.65 92.9326L47.274 75.5551C46.6411 74.9218 46.2856 74.0629 46.2859 73.1676C46.2862 72.2722 46.6422 71.4136 47.2755 70.7806C47.9088 70.1477 48.7677 69.7923 49.6631 69.7925C50.5585 69.7928 51.4171 70.1488 52.05 70.7821L67.08 85.8121L95.196 58.6066C95.8404 57.9899 96.7027 57.6534 97.5944 57.6705C98.4862 57.6877 99.3349 58.0571 99.9551 58.6981C100.575 59.3391 100.916 60.1996 100.904 61.0914C100.892 61.9832 100.527 62.8339 99.8895 63.4576L69.384 92.9716C68.7555 93.5815 67.9138 93.9222 67.038 93.9211Z" fill="#CBF973"/>
<path d="M109.734 64.4309L110.634 68.3789C110.642 68.4079 110.659 68.4337 110.682 68.4531C110.705 68.4724 110.733 68.4844 110.763 68.4875C110.793 68.4906 110.823 68.4846 110.85 68.4703C110.876 68.456 110.898 68.4341 110.911 68.4074C111.169 67.8479 111.438 66.5309 109.998 64.3169C109.977 64.2921 109.949 64.2747 109.918 64.2672C109.886 64.2598 109.853 64.2627 109.823 64.2755C109.794 64.2883 109.769 64.3103 109.753 64.3384C109.737 64.3664 109.73 64.3988 109.734 64.4309Z" fill="white"/>
<path d="M25.827 30.4335L36 41.1195L27.5055 29.055C27.4063 28.9138 27.2747 28.7983 27.1218 28.7182C26.9689 28.6381 26.7991 28.5957 26.6265 28.5945C26.4127 28.5926 26.203 28.6536 26.0236 28.7701C25.8442 28.8865 25.7031 29.0532 25.6178 29.2493C25.5326 29.4454 25.5069 29.6623 25.5441 29.8729C25.5813 30.0835 25.6797 30.2785 25.827 30.4335Z" fill="#8CC63F"/>
<path d="M13.7115 51.75L24.123 54.9L14.286 50.25C14.1709 50.1952 14.0444 50.1689 13.9171 50.173C13.7897 50.1772 13.6652 50.2118 13.554 50.274C13.4141 50.3497 13.2999 50.4654 13.2259 50.6062C13.1519 50.747 13.1214 50.9066 13.1383 51.0647C13.1552 51.2229 13.2187 51.3725 13.3207 51.4945C13.4228 51.6165 13.5588 51.7054 13.7115 51.75Z" fill="#8CC63F"/>
<path d="M128.7 42.9646L119.646 48.9946L129.487 44.3581C129.603 44.3039 129.704 44.223 129.783 44.1221C129.861 44.0211 129.914 43.9031 129.937 43.7776C129.967 43.622 129.949 43.4613 129.887 43.3157C129.825 43.1701 129.722 43.0461 129.589 42.9592C129.457 42.8723 129.302 42.8265 129.144 42.8274C128.986 42.8284 128.831 42.8761 128.7 42.9646Z" fill="#8CC63F"/>
</svg>
