<svg width="150" height="150" viewBox="0 0 150 150" fill="none" xmlns="http://www.w3.org/2000/svg">
<path d="M75.1399 125.002C108.325 124.516 135.163 119.788 135.085 114.441C135.006 109.095 108.041 105.156 74.8561 105.642C41.6712 106.129 14.8331 110.857 14.9115 116.203C14.9898 121.549 41.955 125.489 75.1399 125.002Z" fill="#E6E6E6"/>
<path d="M42.4305 36.0001L49.9635 48.3886L40.6935 37.2406C40.5852 37.1101 40.5094 36.9556 40.4724 36.79C40.4354 36.6244 40.4381 36.4524 40.4805 36.2881C40.5336 36.0849 40.6453 35.9017 40.8018 35.7614C40.9582 35.6211 41.1524 35.53 41.3603 35.4993C41.5681 35.4686 41.7804 35.4997 41.9707 35.5888C42.161 35.6778 42.3209 35.8209 42.4305 36.0001Z" fill="#FE5C09"/>
<path d="M39.9869 58.3741L21.3 46.6156C21.0778 46.476 20.8272 46.3882 20.5665 46.3587C20.3058 46.3292 20.0419 46.3588 19.7942 46.4453C19.5465 46.5317 19.3215 46.6728 19.1358 46.8581C18.9501 47.0434 18.8085 47.2681 18.7215 47.5156C18.5732 47.9347 18.5901 48.3945 18.7687 48.8016C18.9473 49.2086 19.2742 49.5324 19.683 49.7071L39.9869 58.3741Z" fill="#FE5C09"/>
<path d="M111.281 44.7719L103.748 57.1604L113.018 46.0109C113.126 45.8806 113.202 45.7262 113.239 45.5605C113.276 45.3948 113.273 45.2227 113.231 45.0584C113.178 44.8548 113.066 44.6712 112.91 44.5306C112.753 44.3901 112.559 44.2988 112.351 44.2682C112.142 44.2376 111.93 44.2691 111.74 44.3587C111.549 44.4483 111.39 44.592 111.281 44.7719Z" fill="#FE5C09"/>
<path d="M113.724 67.1399L132.417 55.3814C132.639 55.2421 132.89 55.1546 133.151 55.1252C133.411 55.0959 133.675 55.1255 133.923 55.212C134.17 55.2984 134.395 55.4394 134.581 55.6245C134.767 55.8096 134.908 56.0341 134.996 56.2814C135.144 56.7005 135.127 57.1603 134.948 57.5674C134.77 57.9745 134.443 58.2982 134.034 58.473L113.724 67.1399Z" fill="#FE5C09"/>
<path d="M114.75 118.265C113.813 118.533 112.843 118.669 111.869 118.667H38.1361C30.1861 118.667 25.2196 109.995 29.1961 103.059L66.0571 38.7407C66.8502 37.3396 67.961 36.1441 69.3001 35.2502C74.0011 32.1197 80.8171 33.2837 83.9446 38.7392L85.0846 40.7297C85.0846 40.7297 85.0846 40.7417 85.1011 40.7657L102.374 70.9007L120.804 103.059C124.274 109.11 120.936 116.483 114.75 118.265Z" fill="#F28C1C"/>
<path d="M113.478 114.963C112.57 115.221 111.631 115.351 110.688 115.35H39.312C31.6155 115.35 26.808 107.017 30.657 100.35L66.342 38.5378C67.1112 37.19 68.186 36.0417 69.48 35.1853C74.031 32.1763 80.631 33.2953 83.658 38.5378L84.7605 40.4503L84.777 40.4848L94.554 57.4153L101.5 69.4498L119.35 100.35C122.7 106.165 119.47 113.25 113.478 114.963Z" fill="#FFC200"/>
<path d="M36.5234 114.963L39.8369 115.35H39.3119C38.369 115.351 37.4305 115.221 36.5234 114.963Z" fill="#FFC200"/>
<path opacity="0.4" d="M113.476 114.963C112.569 115.221 111.631 115.351 110.688 115.35H39.312C31.6155 115.35 26.808 107.017 30.657 100.35L61.107 47.6009C61.206 47.4299 61.293 47.2754 61.3695 47.1509L61.4415 47.0249C61.476 46.9664 61.5075 46.9124 61.5345 46.8629L61.629 46.6994L61.665 46.6379L61.692 46.5914C61.707 46.5674 61.7145 46.5509 61.7175 46.5464L66.3375 38.5454C67.1066 37.1976 68.1815 36.0493 69.4755 35.1929C69.4755 35.1929 39.3855 114.084 113.476 114.963Z" fill="#FFB000"/>
<path d="M75.3391 51.3662H74.6596C73.3209 51.3662 72.2356 52.4515 72.2356 53.7902V89.7752C72.2356 91.1139 73.3209 92.1992 74.6596 92.1992H75.3391C76.6778 92.1992 77.7631 91.1139 77.7631 89.7752V53.7902C77.7631 52.4515 76.6778 51.3662 75.3391 51.3662Z" fill="#FE5C09"/>
<path d="M75 106.503C77.6228 106.503 79.749 104.377 79.749 101.754C79.749 99.1311 77.6228 97.0049 75 97.0049C72.3772 97.0049 70.251 99.1311 70.251 101.754C70.251 104.377 72.3772 106.503 75 106.503Z" fill="#FE5C09"/>
<path d="M40.2 110.48C44.361 114.663 54.2175 115.35 59.85 115.35H39.312C31.6155 115.35 26.808 107.018 30.657 100.35L61.107 47.6011C55.929 56.6566 51.057 65.9131 46.662 75.3706C43.8615 81.3886 41.196 87.5206 39.1875 93.8491C37.65 98.7286 36.096 106.361 40.2 110.48Z" fill="#FF9700"/>
<path d="M113.478 114.963C112.57 115.221 111.631 115.351 110.688 115.35H103.083C117.495 113.915 115.8 106.611 115.8 104.366C115.8 102.12 94.7639 57.8505 94.5569 57.4155L101.5 69.45L119.35 100.35C122.7 106.166 119.47 113.25 113.478 114.963Z" fill="#F9D987"/>
<path d="M77.7644 42.6855C77.7644 42.6855 80.8799 42.465 83.8364 47.601C86.7929 52.737 94.5554 71.7825 94.5554 71.7825" fill="white"/>
<path d="M96.723 75.8054L98.496 79.3664C98.511 79.3916 98.5331 79.4117 98.5594 79.4245C98.5858 79.4372 98.6153 79.442 98.6443 79.4381C98.6733 79.4343 98.7006 79.4221 98.7228 79.4029C98.7449 79.3838 98.761 79.3586 98.769 79.3304C98.886 78.7304 98.838 77.4165 96.951 75.6345C96.9251 75.6164 96.8941 75.6069 96.8626 75.6074C96.831 75.608 96.8004 75.6185 96.7751 75.6374C96.7498 75.6564 96.7312 75.6828 96.7218 75.713C96.7125 75.7432 96.7129 75.7755 96.723 75.8054Z" fill="white"/>
</svg>
